<svg width="35" height="39" viewBox="0 0 35 39" fill="none" xmlns="http://www.w3.org/2000/svg">
<path d="M30.6196 16.9834H28.7825V11.5244C28.7825 5.17083 23.5618 0 17.147 0C10.7322 0 5.51153 5.17083 5.51153 11.5244V16.9834H3.67436C1.64581 16.9834 0 18.6135 0 20.6226V35.1798C0 37.189 1.64581 38.8191 3.67436 38.8191H30.6196C32.6482 38.8191 34.294 37.189 34.294 35.1798V20.6226C34.294 18.6135 32.6482 16.9834 30.6196 16.9834ZM22.6585 16.9834H11.6355V11.5244C11.6355 8.51442 14.108 6.06549 17.147 6.06549C20.186 6.06549 22.6585 8.51442 22.6585 11.5244V16.9834Z" fill="black"/>
</svg>
